<svg width="27" height="26" viewBox="0 0 27 26" fill="none" xmlns="http://www.w3.org/2000/svg">
<rect x="0.000198364" width="20" height="20" rx="10" fill="#CBB0F7"/>
<path d="M11.2502 5.83334C12.6309 5.83334 13.7502 6.95262 13.7502 8.33334C13.7502 8.60205 13.707 8.86061 13.6285 9.10319C14.4475 9.56899 15.0002 10.4488 15.0002 11.4583C15.0002 12.9541 13.7876 14.1667 12.2919 14.1667H10.5178L10.4327 13.9974L11.3544 11.0608H13.7502V10.4639L11.885 9.16382L12.3525 8.0778L11.7535 7.08334L11.3544 7.87883V8.79598L10.9629 7.88615L9.95666 7.67985L10.1638 8.48267L10.7558 9.07186H9.75728V12.0524L8.73352 9.25171L7.60762 9.65983L8.63138 12.4613L6.70756 10.1774L5.78999 10.944L7.71301 13.2267L5.12227 11.7371L5.0002 11.6667C5.0002 11.4583 5.0002 11.6046 5.0002 11.4583C5.0002 10.4794 5.51956 9.62171 6.29781 9.14592C6.26688 9.01899 6.2502 8.88645 6.2502 8.75C6.2502 7.82953 6.99639 7.08334 7.91686 7.08334C8.29461 7.08334 8.6428 7.20926 8.92232 7.42106C9.28684 6.49161 10.1915 5.83334 11.2502 5.83334Z" fill="black"/>
<path fill-rule="evenodd" clip-rule="evenodd" d="M15.8005 11.0286C13.9329 11.2037 12.1869 12.2769 11.153 13.8845C10.9233 14.241 10.6267 14.8647 10.4989 15.257L10.3952 15.576L10.0423 15.6886C8.45795 16.1935 7.25161 17.4275 6.7941 19.0119C6.30173 20.715 6.76103 22.5317 8.00222 23.7961C8.77964 24.5887 9.72058 25.0677 10.8224 25.233C11.1173 25.2777 11.9903 25.2857 16.426 25.2857C22.1119 25.2857 22.0074 25.2893 22.682 25.0927C23.3013 24.9131 23.7525 24.6897 24.2565 24.3162C26.3672 22.7515 26.8765 19.8474 25.4262 17.6509C24.8257 16.7422 23.8678 16.0228 22.8098 15.6877L22.4568 15.576L22.3532 15.257C22.2254 14.8647 21.9287 14.241 21.6991 13.8845C20.4204 11.8945 18.1721 10.8061 15.8005 11.0286Z" fill="white"/>
</svg>
