<svg width="120" height="120" viewBox="0 0 120 120" fill="none" xmlns="http://www.w3.org/2000/svg">
  <!-- Background rounded square -->
  <rect width="120" height="120" rx="24" fill="#1A1A1A"/>
  <!-- Front panel (top-right) -->
  <path d="M61.299 16.124C61.263 16.172 61.247 16.238 61.216 16.368L43.048 89.395C42.999 89.596 42.975 89.697 43.000 89.775C43.022 89.845 43.068 89.904 43.130 89.941C43.201 89.984 43.305 89.984 43.511 89.984H102.829C109.551 89.984 115 84.354 115 77.407V28.580C115 21.634 109.551 16.003 102.829 16.003H61.680C61.546 16.003 61.479 16.003 61.423 16.027C61.374 16.048 61.331 16.081 61.299 16.124Z" fill="#FF2222"/>
  <!-- Back panel (bottom-left) -->
  <path d="M50.425 30.227C50.450 30.306 50.425 30.406 50.377 30.607L34.564 96.529C34.516 96.730 34.492 96.830 34.517 96.909C34.539 96.978 34.585 97.037 34.648 97.074C34.719 97.117 34.822 97.117 35.028 97.117H59.284C59.490 97.117 59.593 97.117 59.665 97.160C59.727 97.197 59.773 97.256 59.795 97.325C59.820 97.404 59.796 97.505 59.748 97.706L58.326 103.634C58.295 103.764 58.279 103.830 58.244 103.879C58.212 103.922 58.168 103.956 58.118 103.976C58.062 103.997 57.995 103.997 57.862 103.997H17.071C10.402 103.997 5 98.367 5 91.420V42.595C5 35.649 10.402 30.019 17.071 30.019H49.913C50.119 30.019 50.223 30.019 50.294 30.062C50.357 30.099 50.403 30.157 50.425 30.227Z" fill="#FF2222"/>
</svg>
